<mxfile host="Electron" agent="Mozilla/5.0 (Windows NT 10.0; Win64; x64) AppleWebKit/537.36 (KHTML, like Gecko) draw.io/26.0.4 Chrome/128.0.6613.186 Electron/32.2.5 Safari/537.36" version="26.0.4">
  <diagram name="Page-1" id="vhR3uLtPj1EHA3B5LUFv">
    <mxGraphModel dx="1416" dy="818" grid="1" gridSize="10" guides="1" tooltips="1" connect="1" arrows="1" fold="1" page="1" pageScale="1" pageWidth="850" pageHeight="1100" math="0" shadow="0">
      <root>
        <mxCell id="0" />
        <mxCell id="1" parent="0" />
        <mxCell id="20PvkgDfle7S_juf0EOD-1" value="IHeavyObject" style="swimlane;fontStyle=1;align=center;verticalAlign=top;childLayout=stackLayout;horizontal=1;startSize=26;horizontalStack=0;resizeParent=1;resizeParentMax=0;resizeLast=0;collapsible=1;marginBottom=0;whiteSpace=wrap;html=1;" parent="1" vertex="1">
          <mxGeometry x="400" y="160" width="160" height="112" as="geometry" />
        </mxCell>
        <mxCell id="20PvkgDfle7S_juf0EOD-2" value="+GetState(): State" style="text;strokeColor=none;fillColor=none;align=left;verticalAlign=top;spacingLeft=4;spacingRight=4;overflow=hidden;rotatable=0;points=[[0,0.5],[1,0.5]];portConstraint=eastwest;whiteSpace=wrap;html=1;" parent="20PvkgDfle7S_juf0EOD-1" vertex="1">
          <mxGeometry y="26" width="160" height="26" as="geometry" />
        </mxCell>
        <mxCell id="20PvkgDfle7S_juf0EOD-3" value="" style="line;strokeWidth=1;fillColor=none;align=left;verticalAlign=middle;spacingTop=-1;spacingLeft=3;spacingRight=3;rotatable=0;labelPosition=right;points=[];portConstraint=eastwest;strokeColor=inherit;" parent="20PvkgDfle7S_juf0EOD-1" vertex="1">
          <mxGeometry y="52" width="160" height="8" as="geometry" />
        </mxCell>
        <mxCell id="20PvkgDfle7S_juf0EOD-4" value="+SetState(state: State)" style="text;strokeColor=none;fillColor=none;align=left;verticalAlign=top;spacingLeft=4;spacingRight=4;overflow=hidden;rotatable=0;points=[[0,0.5],[1,0.5]];portConstraint=eastwest;whiteSpace=wrap;html=1;" parent="20PvkgDfle7S_juf0EOD-1" vertex="1">
          <mxGeometry y="60" width="160" height="26" as="geometry" />
        </mxCell>
        <mxCell id="20PvkgDfle7S_juf0EOD-5" value="+Clone():IHeavyObject" style="text;strokeColor=none;fillColor=none;align=left;verticalAlign=top;spacingLeft=4;spacingRight=4;overflow=hidden;rotatable=0;points=[[0,0.5],[1,0.5]];portConstraint=eastwest;whiteSpace=wrap;html=1;" parent="20PvkgDfle7S_juf0EOD-1" vertex="1">
          <mxGeometry y="86" width="160" height="26" as="geometry" />
        </mxCell>
        <mxCell id="20PvkgDfle7S_juf0EOD-6" value="HeavyObject" style="swimlane;fontStyle=1;align=center;verticalAlign=top;childLayout=stackLayout;horizontal=1;startSize=26;horizontalStack=0;resizeParent=1;resizeParentMax=0;resizeLast=0;collapsible=1;marginBottom=0;whiteSpace=wrap;html=1;" parent="1" vertex="1">
          <mxGeometry x="230" y="430" width="160" height="112" as="geometry" />
        </mxCell>
        <mxCell id="20PvkgDfle7S_juf0EOD-7" value="+GetState(): State" style="text;strokeColor=none;fillColor=none;align=left;verticalAlign=top;spacingLeft=4;spacingRight=4;overflow=hidden;rotatable=0;points=[[0,0.5],[1,0.5]];portConstraint=eastwest;whiteSpace=wrap;html=1;" parent="20PvkgDfle7S_juf0EOD-6" vertex="1">
          <mxGeometry y="26" width="160" height="26" as="geometry" />
        </mxCell>
        <mxCell id="20PvkgDfle7S_juf0EOD-8" value="" style="line;strokeWidth=1;fillColor=none;align=left;verticalAlign=middle;spacingTop=-1;spacingLeft=3;spacingRight=3;rotatable=0;labelPosition=right;points=[];portConstraint=eastwest;strokeColor=inherit;" parent="20PvkgDfle7S_juf0EOD-6" vertex="1">
          <mxGeometry y="52" width="160" height="8" as="geometry" />
        </mxCell>
        <mxCell id="20PvkgDfle7S_juf0EOD-9" value="+SetState(state: State)" style="text;strokeColor=none;fillColor=none;align=left;verticalAlign=top;spacingLeft=4;spacingRight=4;overflow=hidden;rotatable=0;points=[[0,0.5],[1,0.5]];portConstraint=eastwest;whiteSpace=wrap;html=1;" parent="20PvkgDfle7S_juf0EOD-6" vertex="1">
          <mxGeometry y="60" width="160" height="26" as="geometry" />
        </mxCell>
        <mxCell id="20PvkgDfle7S_juf0EOD-10" value="+Clone():IHeavyObject" style="text;strokeColor=none;fillColor=none;align=left;verticalAlign=top;spacingLeft=4;spacingRight=4;overflow=hidden;rotatable=0;points=[[0,0.5],[1,0.5]];portConstraint=eastwest;whiteSpace=wrap;html=1;" parent="20PvkgDfle7S_juf0EOD-6" vertex="1">
          <mxGeometry y="86" width="160" height="26" as="geometry" />
        </mxCell>
        <mxCell id="20PvkgDfle7S_juf0EOD-11" value="" style="endArrow=block;dashed=1;endFill=0;endSize=12;html=1;rounded=0;" parent="1" source="20PvkgDfle7S_juf0EOD-6" target="20PvkgDfle7S_juf0EOD-1" edge="1">
          <mxGeometry width="160" relative="1" as="geometry">
            <mxPoint x="440" y="350" as="sourcePoint" />
            <mxPoint x="600" y="350" as="targetPoint" />
          </mxGeometry>
        </mxCell>
        <mxCell id="20PvkgDfle7S_juf0EOD-12" value="HeavyObjCoW" style="swimlane;fontStyle=1;align=center;verticalAlign=top;childLayout=stackLayout;horizontal=1;startSize=26;horizontalStack=0;resizeParent=1;resizeParentMax=0;resizeLast=0;collapsible=1;marginBottom=0;whiteSpace=wrap;html=1;" parent="1" vertex="1">
          <mxGeometry x="600" y="400" width="230" height="190" as="geometry" />
        </mxCell>
        <mxCell id="20PvkgDfle7S_juf0EOD-37" value="+HeavyObjCoW()" style="text;strokeColor=none;fillColor=none;align=left;verticalAlign=top;spacingLeft=4;spacingRight=4;overflow=hidden;rotatable=0;points=[[0,0.5],[1,0.5]];portConstraint=eastwest;whiteSpace=wrap;html=1;" parent="20PvkgDfle7S_juf0EOD-12" vertex="1">
          <mxGeometry y="26" width="230" height="26" as="geometry" />
        </mxCell>
        <mxCell id="20PvkgDfle7S_juf0EOD-13" value="+GetState(): State" style="text;strokeColor=none;fillColor=none;align=left;verticalAlign=top;spacingLeft=4;spacingRight=4;overflow=hidden;rotatable=0;points=[[0,0.5],[1,0.5]];portConstraint=eastwest;whiteSpace=wrap;html=1;" parent="20PvkgDfle7S_juf0EOD-12" vertex="1">
          <mxGeometry y="52" width="230" height="26" as="geometry" />
        </mxCell>
        <mxCell id="20PvkgDfle7S_juf0EOD-15" value="+SetState(state: State)" style="text;strokeColor=none;fillColor=none;align=left;verticalAlign=top;spacingLeft=4;spacingRight=4;overflow=hidden;rotatable=0;points=[[0,0.5],[1,0.5]];portConstraint=eastwest;whiteSpace=wrap;html=1;" parent="20PvkgDfle7S_juf0EOD-12" vertex="1">
          <mxGeometry y="78" width="230" height="26" as="geometry" />
        </mxCell>
        <mxCell id="20PvkgDfle7S_juf0EOD-16" value="+Clone():IHeavyObject" style="text;strokeColor=none;fillColor=none;align=left;verticalAlign=top;spacingLeft=4;spacingRight=4;overflow=hidden;rotatable=0;points=[[0,0.5],[1,0.5]];portConstraint=eastwest;whiteSpace=wrap;html=1;" parent="20PvkgDfle7S_juf0EOD-12" vertex="1">
          <mxGeometry y="104" width="230" height="26" as="geometry" />
        </mxCell>
        <mxCell id="20PvkgDfle7S_juf0EOD-14" value="" style="line;strokeWidth=1;fillColor=none;align=left;verticalAlign=middle;spacingTop=-1;spacingLeft=3;spacingRight=3;rotatable=0;labelPosition=right;points=[];portConstraint=eastwest;strokeColor=inherit;" parent="20PvkgDfle7S_juf0EOD-12" vertex="1">
          <mxGeometry y="130" width="230" height="8" as="geometry" />
        </mxCell>
        <mxCell id="20PvkgDfle7S_juf0EOD-29" value="-m_obj:IHeavyObject" style="text;strokeColor=none;fillColor=none;align=left;verticalAlign=top;spacingLeft=4;spacingRight=4;overflow=hidden;rotatable=0;points=[[0,0.5],[1,0.5]];portConstraint=eastwest;whiteSpace=wrap;html=1;" parent="20PvkgDfle7S_juf0EOD-12" vertex="1">
          <mxGeometry y="138" width="230" height="26" as="geometry" />
        </mxCell>
        <mxCell id="20PvkgDfle7S_juf0EOD-30" value="-m_useCounter:UseCounter" style="text;strokeColor=none;fillColor=none;align=left;verticalAlign=top;spacingLeft=4;spacingRight=4;overflow=hidden;rotatable=0;points=[[0,0.5],[1,0.5]];portConstraint=eastwest;whiteSpace=wrap;html=1;" parent="20PvkgDfle7S_juf0EOD-12" vertex="1">
          <mxGeometry y="164" width="230" height="26" as="geometry" />
        </mxCell>
        <mxCell id="20PvkgDfle7S_juf0EOD-17" value="" style="endArrow=block;dashed=1;endFill=0;endSize=12;html=1;rounded=0;" parent="1" source="20PvkgDfle7S_juf0EOD-12" target="20PvkgDfle7S_juf0EOD-1" edge="1">
          <mxGeometry width="160" relative="1" as="geometry">
            <mxPoint x="440" y="350" as="sourcePoint" />
            <mxPoint x="600" y="350" as="targetPoint" />
          </mxGeometry>
        </mxCell>
        <mxCell id="20PvkgDfle7S_juf0EOD-18" value="" style="endArrow=diamondThin;endFill=0;endSize=24;html=1;rounded=0;edgeStyle=orthogonalEdgeStyle;" parent="1" source="20PvkgDfle7S_juf0EOD-1" target="20PvkgDfle7S_juf0EOD-12" edge="1">
          <mxGeometry width="160" relative="1" as="geometry">
            <mxPoint x="450" y="530" as="sourcePoint" />
            <mxPoint x="580" y="560" as="targetPoint" />
          </mxGeometry>
        </mxCell>
        <mxCell id="20PvkgDfle7S_juf0EOD-19" value="UseCounter" style="swimlane;fontStyle=1;align=center;verticalAlign=top;childLayout=stackLayout;horizontal=1;startSize=26;horizontalStack=0;resizeParent=1;resizeParentMax=0;resizeLast=0;collapsible=1;marginBottom=0;whiteSpace=wrap;html=1;" parent="1" vertex="1">
          <mxGeometry x="440" y="330" width="110" height="138" as="geometry" />
        </mxCell>
        <mxCell id="20PvkgDfle7S_juf0EOD-20" value="+Retain()" style="text;strokeColor=none;fillColor=none;align=left;verticalAlign=top;spacingLeft=4;spacingRight=4;overflow=hidden;rotatable=0;points=[[0,0.5],[1,0.5]];portConstraint=eastwest;whiteSpace=wrap;html=1;" parent="20PvkgDfle7S_juf0EOD-19" vertex="1">
          <mxGeometry y="26" width="110" height="26" as="geometry" />
        </mxCell>
        <mxCell id="20PvkgDfle7S_juf0EOD-22" value="+Release()" style="text;strokeColor=none;fillColor=none;align=left;verticalAlign=top;spacingLeft=4;spacingRight=4;overflow=hidden;rotatable=0;points=[[0,0.5],[1,0.5]];portConstraint=eastwest;whiteSpace=wrap;html=1;" parent="20PvkgDfle7S_juf0EOD-19" vertex="1">
          <mxGeometry y="52" width="110" height="26" as="geometry" />
        </mxCell>
        <mxCell id="20PvkgDfle7S_juf0EOD-27" value="+GetValue():int" style="text;strokeColor=none;fillColor=none;align=left;verticalAlign=top;spacingLeft=4;spacingRight=4;overflow=hidden;rotatable=0;points=[[0,0.5],[1,0.5]];portConstraint=eastwest;whiteSpace=wrap;html=1;" parent="20PvkgDfle7S_juf0EOD-19" vertex="1">
          <mxGeometry y="78" width="110" height="26" as="geometry" />
        </mxCell>
        <mxCell id="20PvkgDfle7S_juf0EOD-40" value="" style="line;strokeWidth=1;fillColor=none;align=left;verticalAlign=middle;spacingTop=-1;spacingLeft=3;spacingRight=3;rotatable=0;labelPosition=right;points=[];portConstraint=eastwest;strokeColor=inherit;" parent="20PvkgDfle7S_juf0EOD-19" vertex="1">
          <mxGeometry y="104" width="110" height="8" as="geometry" />
        </mxCell>
        <mxCell id="20PvkgDfle7S_juf0EOD-39" value="-m_value:int" style="text;strokeColor=none;fillColor=none;align=left;verticalAlign=top;spacingLeft=4;spacingRight=4;overflow=hidden;rotatable=0;points=[[0,0.5],[1,0.5]];portConstraint=eastwest;whiteSpace=wrap;html=1;" parent="20PvkgDfle7S_juf0EOD-19" vertex="1">
          <mxGeometry y="112" width="110" height="26" as="geometry" />
        </mxCell>
        <mxCell id="20PvkgDfle7S_juf0EOD-28" value="" style="endArrow=diamondThin;endFill=0;endSize=24;html=1;rounded=0;" parent="1" source="20PvkgDfle7S_juf0EOD-19" target="20PvkgDfle7S_juf0EOD-12" edge="1">
          <mxGeometry width="160" relative="1" as="geometry">
            <mxPoint x="420" y="560" as="sourcePoint" />
            <mxPoint x="580" y="560" as="targetPoint" />
          </mxGeometry>
        </mxCell>
        <mxCell id="20PvkgDfle7S_juf0EOD-31" value="&lt;pre&gt;&lt;font face=&quot;Lucida Console&quot;&gt;return m_obj-&amp;gt;GetState();&lt;/font&gt;&lt;/pre&gt;" style="shape=note;whiteSpace=wrap;html=1;backgroundOutline=1;darkOpacity=0.05;align=left;fillColor=#ffff88;strokeColor=#36393d;size=14;" parent="1" vertex="1">
          <mxGeometry x="830" y="250" width="230" height="38" as="geometry" />
        </mxCell>
        <mxCell id="20PvkgDfle7S_juf0EOD-32" style="edgeStyle=orthogonalEdgeStyle;rounded=0;orthogonalLoop=1;jettySize=auto;html=1;" parent="1" source="20PvkgDfle7S_juf0EOD-13" target="20PvkgDfle7S_juf0EOD-31" edge="1">
          <mxGeometry relative="1" as="geometry">
            <Array as="points">
              <mxPoint x="860" y="465" />
            </Array>
          </mxGeometry>
        </mxCell>
        <mxCell id="20PvkgDfle7S_juf0EOD-33" value="if (m_useCounter-&amp;gt;GetValue() != 1) {&lt;br&gt;&amp;nbsp; m_obj = m_obj-&amp;gt;Clone();&lt;div&gt;&amp;nbsp; m_useCounter-&amp;gt;Release();&lt;/div&gt;&lt;div&gt;&amp;nbsp; m_useCounter = new UseCounter(1);&lt;br&gt;}&lt;div&gt;&lt;br&gt;m_obj-&amp;gt;SetState(state);&lt;/div&gt;&lt;/div&gt;" style="shape=note;whiteSpace=wrap;html=1;backgroundOutline=1;darkOpacity=0.05;align=left;fillColor=#ffff88;strokeColor=#36393d;size=14;fontFamily=Lucida Console;" parent="1" vertex="1">
          <mxGeometry x="870" y="306" width="280" height="128" as="geometry" />
        </mxCell>
        <mxCell id="20PvkgDfle7S_juf0EOD-34" style="edgeStyle=orthogonalEdgeStyle;rounded=0;orthogonalLoop=1;jettySize=auto;html=1;" parent="1" source="20PvkgDfle7S_juf0EOD-15" target="20PvkgDfle7S_juf0EOD-33" edge="1">
          <mxGeometry relative="1" as="geometry" />
        </mxCell>
        <mxCell id="20PvkgDfle7S_juf0EOD-35" value="m_useCounter.Retain();&lt;br&gt;// Shallow copy&lt;br&gt;return HeavyObjCoW(*this);" style="shape=note;whiteSpace=wrap;html=1;backgroundOutline=1;darkOpacity=0.05;align=left;fillColor=#ffff88;strokeColor=#36393d;size=14;fontFamily=Lucida Console;" parent="1" vertex="1">
          <mxGeometry x="890" y="504" width="210" height="74" as="geometry" />
        </mxCell>
        <mxCell id="20PvkgDfle7S_juf0EOD-36" style="edgeStyle=orthogonalEdgeStyle;rounded=0;orthogonalLoop=1;jettySize=auto;html=1;" parent="1" source="20PvkgDfle7S_juf0EOD-16" target="20PvkgDfle7S_juf0EOD-35" edge="1">
          <mxGeometry relative="1" as="geometry" />
        </mxCell>
        <mxCell id="20PvkgDfle7S_juf0EOD-38" value="m_obj = HeavyObj();&lt;br&gt;m_useCount = new UseCounter(1);" style="shape=note;whiteSpace=wrap;html=1;backgroundOutline=1;darkOpacity=0.05;align=left;fillColor=#ffff88;strokeColor=#36393d;size=14;fontFamily=Lucida Console;" parent="1" vertex="1">
          <mxGeometry x="730" y="160" width="310" height="66" as="geometry" />
        </mxCell>
        <mxCell id="20PvkgDfle7S_juf0EOD-41" style="edgeStyle=orthogonalEdgeStyle;rounded=0;orthogonalLoop=1;jettySize=auto;html=1;" parent="1" source="20PvkgDfle7S_juf0EOD-37" target="20PvkgDfle7S_juf0EOD-38" edge="1">
          <mxGeometry relative="1" as="geometry">
            <Array as="points">
              <mxPoint x="850" y="439" />
              <mxPoint x="850" y="326" />
              <mxPoint x="790" y="326" />
            </Array>
          </mxGeometry>
        </mxCell>
        <mxCell id="20PvkgDfle7S_juf0EOD-42" value="Use" style="endArrow=open;endSize=12;dashed=1;html=1;rounded=0;" parent="1" source="20PvkgDfle7S_juf0EOD-12" target="20PvkgDfle7S_juf0EOD-6" edge="1">
          <mxGeometry width="160" relative="1" as="geometry">
            <mxPoint x="470" y="630" as="sourcePoint" />
            <mxPoint x="630" y="630" as="targetPoint" />
          </mxGeometry>
        </mxCell>
      </root>
    </mxGraphModel>
  </diagram>
</mxfile>
